<svg xmlns="http://www.w3.org/2000/svg" width="857.98" height="880" viewBox="0 0 857.98 880"><g transform="translate(-493.891 -118)"><ellipse cx="46.035" cy="46.034" rx="46.035" ry="46.034" transform="translate(532.63 171.571)" fill="#090814"/><rect width="183" height="204" rx="16" transform="translate(715.941 118)" fill="#e6e6e6"/><g transform="translate(833.721 232.402)"><path d="M1145.855,710.307l-513.648.574a2.251,2.251,0,1,1,0-4.5l513.648-.573a2.251,2.251,0,0,1,0,4.5Z" transform="translate(-629.956 54.717)" fill="#e6e6e6"/><g transform="translate(87.588 233.026)"><g transform="translate(0 0)"><path d="M605.807,350.467l-55.163-46.588a9.329,9.329,0,0,1-1.106-13.131l10.146-12.024a9.328,9.328,0,0,1,13.131-1.107l55.163,46.592a9.328,9.328,0,0,1,1.107,13.131l-10.154,12.023A9.328,9.328,0,0,1,605.807,350.467Z" transform="translate(-547.343 -275.421)" fill="#3f3d56"/><path d="M551.677,290.792a5.027,5.027,0,0,0,.6,7.076l55.163,46.588a5.027,5.027,0,0,0,7.076-.6l10.154-12.023a5.027,5.027,0,0,0-.6-7.076l-55.163-46.588a5.027,5.027,0,0,0-7.076.6Z" transform="translate(-545.484 -274.495)" fill="#6c63ff"/></g></g><rect width="26.812" height="35.34" transform="translate(150.58 703.343)" fill="#ed9da0"/><path d="M730.306,516.334H673.311a32.872,32.872,0,0,1-14.157-3.226l-10.505-5.049a6.312,6.312,0,0,1,1.051-11.767l21.679-6L708.46,470.8l.028.138c.69,3.512,1.767,8.818,1.905,9.142,3.8,4.36,7.709,6.364,11.612,5.969,6.806-.69,11.33-8.552,11.374-8.628l.035-.06.069.007a4.512,4.512,0,0,1,3.5,1.911c1.553,2.345.606,5.945.449,6.491,1.859,1.816,2.694,11.978,2.763,12.8,2.688,2.85,3.966,5.588,3.8,8.139a8.769,8.769,0,0,1-3.684,6.162,15.916,15.916,0,0,1-10.006,3.464Z" transform="translate(-557.49 246.743)" fill="#090814"/><rect width="26.812" height="35.34" transform="translate(328.488 694.714) rotate(-16.22)" fill="#ed9da0"/><path d="M852.009,502.883,797.283,518.8a32.871,32.871,0,0,1-14.494.858l-11.5-1.914a6.31,6.31,0,0,1-2.272-11.587l19.135-11.814,30.166-29.069.064.122c1.637,3.172,4.166,7.973,4.383,8.244,4.868,3.122,9.18,3.958,12.816,2.483,6.344-2.558,8.493-11.373,8.512-11.46l.016-.068.068-.012a4.512,4.512,0,0,1,3.9.855c2.149,1.816,2.242,5.541,2.244,6.107,2.294,1.228,5.935,10.749,6.223,11.518,3.377,1.985,5.369,4.258,5.918,6.759a8.768,8.768,0,0,1-1.816,6.943,15.915,15.915,0,0,1-8.639,6.12Z" transform="translate(-485.491 242.972)" fill="#090814"/><path d="M796.9,80.09a43.59,43.59,0,1,0-56.652,41.6l8.426,55.69,42.957-35.792a108.223,108.223,0,0,1-14.266-25.153A43.545,43.545,0,0,0,796.885,80.09Z" transform="translate(-519.023 -11.844)" fill="#ed9da0"/><path d="M841.131,260.851l6.293-88.092a58.257,58.257,0,0,0-2.841-22.578L825.931,94.242l-54.925,17.641-23.174,53.022-12.626,23.139a27.054,27.054,0,0,0,4.62,32.081l8,8-11.153,40.91,1.174-.041-1.574.2s-74.572,224.341-71.9,415.13H760.1l5.682-221.47,16.626,230.069,126.131-7.265-67.4-424.814Z" transform="translate(-546.053 22.534)" fill="#e6e6e6"/><path d="M676.165,254.793c-.5-9.835,8.708-18.3,20.59-18.919a23.4,23.4,0,0,1,17.126,5.806l.276-.013,70.436-7.295-5.283-69.906c-1.954-13.518,1.842-27.151,15.158-30.208h0a26.259,26.259,0,0,1,32.148,25.712l-.4,88.053a22.622,22.622,0,0,1-22.771,22.528l-88.4-6.606a23.394,23.394,0,0,1-16.436,7.543c-11.884.614-21.932-6.861-22.436-16.69Z" transform="translate(-538.995 45.96)" fill="#ed9da0"/><path d="M736.562,136.277l4.243,79.756,58.952-4-10.426-82.946" transform="translate(-503.026 43.284)" fill="#e6e6e6"/><path d="M121.192,117.9s1.175,9.589-18.79,10.122l-40.5,1.083S87.725,48.852,73.648,58.239,22.032,28.275,22.032,28.275L10.956,49.049S-15.506,39.466,13.821,16c0,0,34.991-27.052,72.139-10.807S124.521,111.14,124.521,111.14l-3.33,6.76Z" transform="translate(202.542 -2.539) rotate(16)" fill="#090814"/></g><path d="M649.109,413.989l67.709-48.367a13.161,13.161,0,1,1,15.81,11.333c-8.464,7.105-70.281,68.586-79.133,65.342-8.983-3.291-48.261-9.249-48.261-9.249l-1.094-37.293Z" transform="translate(20.559 -60.525)" fill="#ed9da0"/><path d="M40.906,71.031a35.711,35.711,0,1,0-29.445-9.107L3.52,87.181,37.2,91.651Z" transform="translate(549.631 190.403)" fill="#ed9da0"/><path d="M103.6,172.135l1.706-.786c-3.56-7.184-10.42-38.652-6.592-45.707,3.673-6.774,10.289-11.587,13.943-18.375a30.8,30.8,0,0,0,2.958-18.418l14.667-19.3L83.451,21.364c-.664-.685-1.352-1.376-2.062-2.06-.153-5.832,2.579-10.2-4.681-14.269-6.037-3.387-32.858-6.4-39.5-4.389-9.823,2.967-12.056,9.937-16.661,19.11A189.683,189.683,0,0,0,4.408,142.15c1.75,8.482-9.059,12.185-1.974,17.172,4.809,3.394,24.464,9.692,30.288,10.437A385.434,385.434,0,0,0,81.029,172.8Q92.321,172.8,103.6,172.135Z" transform="translate(512.837 270.699)" fill="#6c63ff"/><path d="M722.264,432.744c3.291-8.984,9.25-48.261,9.25-48.261l37.293-1.093-18.232,44.97,49.753,69.651s-.092.153-.26.426a13.158,13.158,0,1,1-11.036,13.983.909.909,0,0,1-1.139-.2C782.354,505.276,718.974,441.725,722.264,432.744Z" transform="translate(-224.305 -45.498)" fill="#ed9da0"/><path d="M742.442,427.157c3.424-14.446,6.872-28.973,12.642-42.651s14.033-26.6,25.653-35.841a30,30,0,0,1,12.527-6.481c4.659-.921,9.9.109,13.175,3.55,5.234,5.5,3.658,14.34,1.74,21.693L791.2,432.431l-49.036-5.2Z" transform="translate(-248.273 -64.716)" fill="#6c63ff"/><g transform="translate(594.923 452.8)"><path d="M248.648,9.8c-44.5,14.047-151.136,9.257-196.951,0C38.31,7.1-25.542-4.5-38.428-9.025c-3.836-1.347-16.331-8.527-17.355-4.8-1.141,4.154,1.408,7.909,5.258,9.261,46.478,16.313,159.083,29.617,193,32.05,13.648-2.257,99.308-2.994,112.5-7.157C264.181,17.424,259.67,14.842,248.648,9.8Z" transform="translate(56.057 14.885)" fill="#e6e6e6"/></g><g transform="translate(790.793 150.406)"><circle cx="5.645" cy="5.645" r="5.645" transform="translate(11.191 53.264)" fill="#6c63ff"/><circle cx="2.946" cy="2.946" r="2.946" transform="translate(24.937 4.172)" fill="#f2f2f2"/><circle cx="2.946" cy="2.946" r="2.946" transform="translate(11.436 36.573)" fill="#f2f2f2"/><path d="M488.514,220.37a16.337,16.337,0,0,0-16.173,16.055c0,.082,0,.656,0,1.4a4.142,4.142,0,0,0,4.142,4.142h0a4.142,4.142,0,0,0,4.142-4.146v-.885a7.855,7.855,0,1,1,12.091,6.613h0s-5.894,3.794-7.691,9h0a11.538,11.538,0,0,0-.475,3.285c0,.457.027,4.458.079,7.7a4.269,4.269,0,0,0,4.27,4.2h0a4.27,4.27,0,0,0,4.271-4.3c-.018-2.973-.028-6.436-.028-6.688,0-3.2,3.084-6.381,5.616-8.458a17.035,17.035,0,0,0,5.859-9.327,10.649,10.649,0,0,0,.307-2.311,16.292,16.292,0,0,0-16.41-16.292Z" transform="translate(-472.282 -220.37)" fill="#6c63ff"/><path d="M477.234,288.214h0a4.142,4.142,0,0,1-4.142-4.142v-1.4a16.139,16.139,0,0,1,1.887-7.352,16.176,16.176,0,0,0-3.112,9.316v1.4a4.142,4.142,0,0,0,4.142,4.142h0A4.145,4.145,0,0,0,480,287.159,4.126,4.126,0,0,1,477.234,288.214Z" transform="translate(-471.866 -268.573)" fill="#3f3d56"/><path d="M561,277.376a7.855,7.855,0,0,1,6.831,10.973,7.854,7.854,0,1,0-13.184-8.221A7.839,7.839,0,0,1,561,277.376Z" transform="translate(-544.489 -268.649)" fill="#3f3d56"/><path d="M576.941,470.691h0a4.27,4.27,0,0,1-4.27-4.2c-.052-3.245-.079-7.245-.079-7.7a11.535,11.535,0,0,1,.475-3.285h0a11.664,11.664,0,0,1,.674-1.559,13.507,13.507,0,0,0-1.9,3.523h0a11.539,11.539,0,0,0-.475,3.285c0,.457.027,4.458.079,7.7a4.269,4.269,0,0,0,4.27,4.2h0a4.271,4.271,0,0,0,4.1-3.073A4.254,4.254,0,0,1,576.941,470.691Z" transform="translate(-559.154 -425.277)" fill="#3f3d56"/><path d="M567.389,672.435a5.645,5.645,0,0,1-2.1-8.774,5.645,5.645,0,1,0,7.679,8.157,5.642,5.642,0,0,1-5.584.615Z" transform="translate(-551.796 -609.257)" fill="#3f3d56"/></g><rect width="122.789" height="12.279" rx="6" transform="translate(745.721 237.035)" fill="#090814"/><rect width="122.789" height="12.279" rx="6" transform="translate(745.721 257.499)" fill="#090814" opacity="0.24"/><rect width="91.069" height="12.279" rx="6" transform="translate(745.721 277.964)" fill="#090814" opacity="0.24"/><ellipse cx="25.116" cy="39.721" rx="25.116" ry="39.721" transform="translate(547.352 244.916) rotate(-115.101)" fill="#090814"/><ellipse cx="20.14" cy="20.14" rx="20.14" ry="20.14" transform="translate(531.193 158.626)" fill="#090814"/><path d="M518.863,171.6a20.139,20.139,0,0,0-17.979-20.02,20.14,20.14,0,1,1,0,40.041A20.139,20.139,0,0,0,518.864,171.6Z" transform="translate(51.173 -0.027)" fill="#090814"/></g></svg>