<svg xmlns="http://www.w3.org/2000/svg" width="960" height="757.466" viewBox="0 0 960 757.466"><g transform="translate(-549.873 -217.115)"><path d="M215.7,291.444a3.835,3.835,0,0,0-3.832,3.832v30.654a3.832,3.832,0,0,0,7.663,0V295.275A3.835,3.835,0,0,0,215.7,291.444Z" transform="translate(585.969 266.768)" fill="#3f3d56"/><path d="M648.013,0H303.342a70.771,70.771,0,0,0-70.771,70.771v609.06A70.771,70.771,0,0,0,303.342,750.6H648.013a70.771,70.771,0,0,0,70.771-70.771V70.771A70.771,70.771,0,0,0,648.013,0Z" transform="translate(589.496 217.115)" fill="#fff"/><path d="M648.257,755.521H303.586a72.529,72.529,0,0,1-72.447-72.446V74.015A72.53,72.53,0,0,1,303.586,1.568H648.257A72.53,72.53,0,0,1,720.7,74.015v609.06a72.529,72.529,0,0,1-72.447,72.446ZM303.586,4.92a69.173,69.173,0,0,0-69.1,69.1v609.06a69.173,69.173,0,0,0,69.1,69.095H648.257a69.173,69.173,0,0,0,69.1-69.095V74.015a69.173,69.173,0,0,0-69.1-69.1H303.586Z" transform="translate(589.252 217.382)" fill="#3f3d56"/><path d="M630.588,129.907H492.049a10.657,10.657,0,0,1,0-21.314H630.588a10.657,10.657,0,0,1,0,21.314Z" transform="translate(631.887 235.616)" fill="#e6e6e6"/><path d="M518.32,200.2H383.654a6.157,6.157,0,1,1,0-12.314H518.32a6.157,6.157,0,0,1,0,12.314Z" transform="translate(614.187 249.126)" fill="#6c63ff"/><path d="M5,0H72.929a5,5,0,1,1,0,9.99H5A5,5,0,0,1,5,0Z" transform="translate(864.765 243.515)" fill="#6c63ff"/><circle cx="7.992" cy="7.992" r="7.992" transform="translate(1193.148 237.521)" fill="#e6e6e6"/><circle cx="7.992" cy="7.992" r="7.992" transform="translate(1215.127 237.521)" fill="#e6e6e6"/><circle cx="7.992" cy="7.992" r="7.992" transform="translate(1237.105 237.521)" fill="#e6e6e6"/><path d="M292.323,226.862a1.988,1.988,0,0,0,1.994,1.994h342.36a1.994,1.994,0,0,0,0-3.989H294.318A1.988,1.988,0,0,0,292.323,226.862Z" transform="translate(599.676 255.426)" fill="#3f3d56"/><path d="M524.323,467.862a1.988,1.988,0,0,0,1.994,1.994h342.36a1.994,1.994,0,1,0,0-3.989H526.317a1.988,1.988,0,0,0-1.994,1.994Z" transform="translate(639.201 296.485)" fill="#3f3d56"/><path d="M589.3,362.291H383.847a6.157,6.157,0,1,1,0-12.314H589.3a6.157,6.157,0,0,1,0,12.314Z" transform="translate(614.22 276.74)" fill="#6c63ff"/><circle cx="15.083" cy="15.083" r="15.083" transform="translate(920.667 617.031)" fill="#6c63ff"/><path d="M328.274,383.628v-3.352a22.624,22.624,0,0,0,0-45.248v-3.352a25.976,25.976,0,1,1,0,51.951Z" transform="translate(605.801 273.623)" fill="#3f3d56"/><path d="M179.548,303.529c6.152-6.261,14.37-8.162,18.354-4.246s2.225,12.165-3.93,18.427a21.968,21.968,0,0,1-8.739,5.593l-26.4,26.2L146.8,336.851l27.306-24.484a21.969,21.969,0,0,1,5.442-8.837Z" transform="translate(574.883 267.757)" fill="#ffb6b6"/><path d="M107.71,284.4l27.683,61.413L179.6,321.881l15.82,8.4s-36.137,60.414-60.88,53.537-68.68-69.237-60.764-88.483S107.71,284.4,107.71,284.4Z" transform="translate(562.282 265.263)" fill="#e6e6e6"/><path d="M0,644.216a1.389,1.389,0,0,0,1.393,1.393H854.931a1.393,1.393,0,1,0,0-2.785H1.393A1.389,1.389,0,0,0,0,644.216Z" transform="translate(549.873 328.973)" fill="#e6e6e6"/><ellipse cx="75.956" cy="74.355" rx="75.956" ry="74.355" transform="translate(729.435 521.898)" fill="#6c63ff"/><g transform="translate(653.183 881.091)"><path d="M92.262,645.182l20.185,0,9.6-77.858-29.792,0Z" transform="translate(-87.592 -567.322)" fill="#ed9da0"/><path d="M162.1,636.772h0c.628,1.058.96,4.475.96,5.706h0a6.851,6.851,0,0,1-6.851,6.851H93.7a4.674,4.674,0,0,1-4.674-4.674v-2.6S85.93,634.231,92.3,624.59c0,0,7.913,7.549,19.737-4.275L115.52,614l25.239,18.459,13.99,1.722c3.061.377,5.774-.058,7.349,2.593Z" transform="translate(-88.271 -559.37)" fill="#2f2e41"/></g><path d="M0,62.081l11.7-14.31A29.059,29.059,0,1,1,34.926,58.1l-.29,19.345Z" transform="translate(638.492 476.16)" fill="#ed9da0"/><path d="M150.682,447.9,122.867,637.174H87.97l4.64-108.042,2.442-56.809L87.97,445.281a120.77,120.77,0,0,1-5.95-13.3c-3.066-8.222-5.488-18.079-1.893-22.754,1.323-1.723,4.762-3,9.437-3.948a97.639,97.639,0,0,1,9.769-1.391c20.637-2.042,49.992-.767,49.992-.767l.746,24.626.414,13.751.2,6.4Z" transform="translate(563.219 285.728)" fill="#2f2e41"/><g transform="translate(617.288 872.664)"><path d="M61.88,637.152l19.971,2.934,20.825-75.634L73.2,560.122Z" transform="translate(-56.873 -560.122)" fill="#ed9da0"/><path d="M131.1,638.413h0c.468,1.139.3,4.567.12,5.785h0a6.851,6.851,0,0,1-7.775,5.782L61.6,640.887a4.674,4.674,0,0,1-3.944-5.3l.379-2.575s-1.922-8.189,5.78-16.8c0,0,6.731,8.62,20.149-1.359l4.368-5.742,22.286,21.934,13.591,3.739c2.973.818,5.721.782,6.893,3.634h0Z" transform="translate(-57.602 -551.776)" fill="#2f2e41"/></g><path d="M154.119,417.018,150.3,449.873,129.5,519.107,95.25,633.09l-34.522-5.073L91.711,465.95l-3.068-27.79s-1-2.762-2.144-6.806c-2.273-8-5.124-21.03-1.988-27.676a7.77,7.77,0,0,1,1.613-2.322c1.234-1.2,3.741-1.923,7.1-2.308,14.042-1.587,42.96,2.952,55.828,5.18l5.066,12.791Z" transform="translate(560.219 285.044)" fill="#2f2e41"/><path d="M82.157,269.459l33.92,16.282s35.955,106.509,35.955,111.936,10.176,8.819,4.07,14.925,11.364,11.276,1.951,16.153S89.919,460.309,83.389,457.9c-18.009-6.635.763-31.015.763-31.015S70.624,415.994,72.66,410.567,60.448,301.344,60.448,301.344l21.709-31.885Z" transform="translate(560.172 263.023)" fill="#e6e6e6"/><g transform="translate(638.633 555.122)"><path d="M173.832,349.793c8.418-2.487,16.525-.159,18.107,5.2s-3.96,11.715-12.382,14.2a21.968,21.968,0,0,1-10.355.648l-35.8,10.087-4.376-16.9,35.759-8.15a21.97,21.97,0,0,1,9.048-5.084Z" transform="translate(-66.778 -278.583)" fill="#ed9da0"/><path d="M119.569,300.115l-5.611,67.13,50.263.54,9.755,15.021s-60.922,35.275-79.215,17.251S68.329,306.185,84.593,293.2s34.977,6.914,34.977,6.914Z" transform="translate(-75.839 -288.804)" fill="#e6e6e6"/></g><g transform="translate(638.091 455.9)"><path d="M94.026,254.138s4.576-7.55,7.093-11.44,2.517-9.588,2.517-9.588,23.337-.479,31.117,6.156,13.27-17.846,5.72-26.312c0,0-3.2,3.661-2.517,5.034l.686,1.373s-3.89-15.558-15.1-18.533c0,0-6.237,3.221-4.491,5.043s-13.355-10.991-17.931-3.441c0,0-11.211-.229-9.838,3.89l-.686,2.517s-9.61-2.974-10.3,4.118c0,0,3.432,0,5.262,1.83s-6.635,7.093-6.635,7.093-9.838,27,3.432,37.981c0,0,.114-13.156,5.377-9.953s6.292,4.233,6.292,4.233Z" transform="translate(-75.416 -200.025)" fill="#2f2e41"/></g><g transform="translate(1211.778 908.063)"><path d="M608.283,646.947,594.7,644.011l4.859-53.8,20.051,4.334Z" transform="translate(-560.221 -590.213)" fill="#ed9da0"/><path d="M568.616,629.111h0a11.935,11.935,0,0,0-1.476,3.7h0a4.717,4.717,0,0,0,3.615,5.607l42.073,9.09a3.218,3.218,0,0,0,3.825-2.466l.378-1.752s3.219-4.815.336-12.23c0,0-6.423,3.93-12.662-5.747l-1.428-4.758-19.671,8.753-9.666-.875c-2.115-.192-3.878-.879-5.323.677h0Z" transform="translate(-567.033 -582.741)" fill="#2f2e41"/></g><g transform="translate(1193.206 905.09)"><path d="M588.34,643.419l-11.334-8.045,25.636-47.547L619.369,599.7Z" transform="translate(-546.004 -587.827)" fill="#ed9da0"/><path d="M555.813,610.169h0A11.935,11.935,0,0,0,553,612.99h0a4.717,4.717,0,0,0,1.117,6.577l35.1,24.912a3.218,3.218,0,0,0,4.487-.762l1.037-1.461s4.854-3.16,5.121-11.111c0,0-7.452,1.086-9.379-10.266l.559-4.936-21.529.307-8.542-4.608c-1.869-1.008-3.219-2.334-5.16-1.472Z" transform="translate(-552.13 -582.394)" fill="#2f2e41"/></g><path d="M731.8,425.268s19.849,26.986-19.849,57.326l-81.049-25.9,28.946-60.373,25.638-14.06L731.8,425.268Z" transform="translate(657.36 282.241)" fill="#2f2e41"/><path d="M638.371,447.3l-31.427,61.2L587.1,635.867l24.811,1.654,24.811-120.746L680.55,451.44l-30.6-14.059" transform="translate(649.896 291.631)" fill="#2f2e41"/><path d="M718.216,452.776V472l-56.238,61.767s0,46.314-21.5,67.816l-24.811,38.043-21.5-11.578,31.427-110.822,56.238-72.779Z" transform="translate(651.1 292.835)" fill="#2f2e41"/><path d="M23.532,49.919A24.981,24.981,0,1,1,49.961,24.981c0,.736-.033,1.464-.094,2.184l.031-.016c-.017.07-.034.14-.049.21q-.107,1.147-.317,2.261c-1.04,14.5,13.238,44.2,13.238,44.2L30.255,81.767Z" transform="translate(1307.624 513.651)" fill="#ed9da0"/><path d="M698.645,293.933l-24.811,11.578s-12.764,7.8-13,13,1.42,30.007,1.42,30.007-9.924,9.924-3.308,29.773l-3.308,33.081,74.433,39.7-6.616-69.47,3.308-64.508Z" transform="translate(661.574 267.192)" fill="#e6e6e6"/><g transform="translate(1365.501 583.728)"><path d="M713.886,460.836c-2.9,6.665-8.7,10.569-12.94,8.719s-5.324-8.751-2.417-15.418a18.2,18.2,0,0,1,5.1-6.914L716.3,419.138l13.053,6.224-13.871,27.026a18.2,18.2,0,0,1-1.593,8.448Z" transform="translate(-696.898 -295.205)" fill="#ed9da0"/><path d="M700.158,317.934s18.195-11.578,24.811,1.654,21.5,81.049,21.5,81.049l-21.5,64.508-19.849-8.27,17.368-69.425-22.33-69.516Z" transform="translate(-696.343 -313.246)" fill="#e6e6e6"/></g><g transform="translate(1259.11 584.442)"><path d="M622.949,451.383c-5.156,5.126-11.981,6.621-15.242,3.339s-1.726-10.1,3.433-15.224a18.2,18.2,0,0,1,7.292-4.548l22.121-21.444,9.842,10.6-22.852,20.015a18.2,18.2,0,0,1-4.593,7.267Z" transform="translate(-605.994 -296.878)" fill="#ed9da0"/><path d="M667.457,313.885s31.721-1.3,33,13.442-20.409,80.506-20.409,80.506l-43.755,52.049-15.406-15,41.722-58.144,4.851-72.853Z" transform="translate(-603.457 -313.855)" fill="#e6e6e6"/></g><g transform="translate(1136.363 682.938)"><path d="M769.215,469.671,566.38,436.955a6.157,6.157,0,1,1,1.961-12.157l202.835,32.716a6.157,6.157,0,0,1-1.961,12.157Z" transform="translate(-490.879 -393.464)" fill="#6c63ff"/><circle cx="15.083" cy="15.083" r="15.083" transform="translate(0 11.656)" fill="#6c63ff"/><path d="M509.169,449.3l.534-3.309a22.624,22.624,0,0,0,7.2-44.671l.534-3.309a25.976,25.976,0,1,1-8.272,51.289Z" transform="translate(-499.744 -398.014)" fill="#3f3d56"/></g><g transform="translate(1301.367 485.505)"><path d="M688.1,282.448s-15.595-14.156-25.587-9.16a153.962,153.962,0,0,0-14.988,8.327s-8.327-12.49,4.163-23.315c0,0-20.327-2.613-1.787-19.959S674.618,234,674.618,234s27.863-4.846,12.042,15.139c0,0,23.049,14.617,11.108,38.534,0,0-1.116-15.219-4.446-11.056a50.856,50.856,0,0,1-5.222,5.829Z" transform="translate(-642.1 -229.321)" fill="#2f2e41"/></g><path d="M248.478,358.481l-28.649-70.437c-1.319-3.243-5.451-3.358-6.738,0a311.342,311.342,0,0,0-18.566,76.491c-.5,4.461,6.487,4.425,6.987,0a298.6,298.6,0,0,1,5.093-30.483,73.465,73.465,0,0,0,23.4-2.572l11.738,28.859C243.412,364.449,250.174,362.651,248.478,358.481ZM208.19,327.143q3.53-14.45,8.449-28.519l10.709,26.33a67.483,67.483,0,0,1-19.158,2.19Z" transform="translate(583.01 265.767)" fill="#fff"/><circle cx="7" cy="7" r="7" transform="translate(837.873 616.263)" fill="#fff"/><circle cx="7" cy="7" r="7" transform="translate(764.873 553.263)" fill="#fff"/><g transform="translate(972.062 816.935)"><path d="M870.87,177.293v147.3a3.707,3.707,0,0,1-3.706,3.708H617.115a3.118,3.118,0,0,1-.531-.041,3.705,3.705,0,0,1-3.177-3.667v-147.3a3.707,3.707,0,0,1,3.706-3.708H867.162a3.707,3.707,0,0,1,3.708,3.706Z" transform="translate(-613.406 -173.584)" fill="#e6e6e6"/><circle cx="32.534" cy="32.534" r="32.534" transform="translate(30.497 22.511)" fill="#090814"/><path d="M782.034,344.953H622.43a3.256,3.256,0,0,1-.6-.047l75.485-130.751a5.285,5.285,0,0,1,9.2,0l50.66,87.744,2.427,4.2Z" transform="translate(-616.979 -189.648)" fill="#6c63ff"/><path d="M745.869,261.267H691.377l26.75-38.855,1.926-2.8.963-1.4,2.427,4.2Z" transform="translate(-580.814 -105.962)" opacity="0.2" style="isolation:isolate"/><path d="M952.624,373.319H814.579l26.75-38.856,1.925-2.8,34.858-50.637c2.285-3.319,7.783-3.525,10.47-.626a6.283,6.283,0,0,1,.5.626Z" transform="translate(-698.702 -218.014)" fill="#6c63ff"/></g></g></svg>